<svg version="1.1" id="Layer_1" xmlns="http://www.w3.org/2000/svg" xmlns:xlink="http://www.w3.org/1999/xlink" x="0px" y="0px"
	 width="100%" viewBox="0 0 50 50" enable-background="new 0 0 50 50" xml:space="preserve">
<path fill="#000000" opacity="1.000000" stroke="none" 
	d="
M1.000000,43.000000 
	C1.000000,29.045183 1.000000,15.090367 1.000000,1.067776 
	C17.567478,1.067776 34.135273,1.067776 51.000000,1.067776 
	C51.000000,15.352863 51.000000,29.707773 50.662510,44.618198 
	C48.916306,45.096886 47.507587,45.020061 46.047581,44.598129 
	C45.345882,43.807011 44.695473,43.360996 43.956772,42.626144 
	C43.530476,41.850521 43.192471,41.363735 42.784836,40.522442 
	C37.826687,27.481508 29.061392,21.929930 13.801993,26.320230 
	C11.740723,30.264608 8.948080,35.608517 6.057229,41.235054 
	C5.636101,41.733826 5.313181,41.949966 4.608264,42.094780 
	C3.150845,42.348965 2.075423,42.674484 1.000000,43.000000 
z"/>
<path fill="#FFF2DC" opacity="1.000000" stroke="none" 
	d="
M1.000000,43.416664 
	C2.075423,42.674484 3.150845,42.348965 4.600389,42.264343 
	C4.974509,42.505238 4.934458,42.842365 4.647271,43.083229 
	C5.715771,44.197777 7.042418,45.768147 8.432108,45.826073 
	C14.888354,46.095188 21.365446,46.075508 27.828543,45.907677 
	C33.922894,45.749416 40.009090,45.277290 46.098873,44.943233 
	C47.507587,45.020061 48.916306,45.096886 50.662510,45.086857 
	C51.000000,46.066669 51.000000,47.133339 50.580154,48.604618 
	C47.480610,48.685760 44.800915,48.362297 41.645096,48.022964 
	C27.779320,48.004730 14.389660,48.002365 1.000000,48.000000 
	C1.000000,46.611111 1.000000,45.222221 1.000000,43.416664 
z"/>
<path fill="#000000" opacity="1.000000" stroke="none" 
	d="
M42.121216,48.038834 
	C44.800915,48.362297 47.480610,48.685760 50.580154,49.004616 
	C51.609192,52.021976 49.315964,50.963562 48.044971,50.968021 
	C33.675892,51.018475 19.306570,51.000000 4.165608,50.616852 
	C5.059323,49.822472 6.720843,49.074799 8.390811,49.055424 
	C18.137161,48.942352 27.885841,49.040680 37.632786,48.957066 
	C39.131447,48.944210 40.625198,48.359226 42.121216,48.038834 
z"/>
<path fill="#FFFFFF" opacity="1.000000" stroke="none" 
	d="
M41.645096,48.022964 
	C40.625198,48.359226 39.131447,48.944210 37.632786,48.957066 
	C27.885841,49.040680 18.137161,48.942352 8.390811,49.055424 
	C6.720843,49.074799 5.059323,49.822472 3.696950,50.616852 
	C2.731102,50.736679 0.387769,52.085014 1.000000,48.500000 
	C14.389660,48.002365 27.779320,48.004730 41.645096,48.022964 
z"/>
<path fill="#FFBF5D" opacity="1.000000" stroke="none" 
	d="
M6.155437,40.952423 
	C8.948080,35.608517 11.740723,30.264608 13.801993,26.320230 
	C29.061392,21.929930 37.826687,27.481508 42.325562,40.533501 
	C30.009092,40.916847 18.082266,40.934631 6.155437,40.952423 
z"/>
<path fill="#FFC56A" opacity="1.000000" stroke="none" 
	d="
M46.047581,44.598129 
	C40.009090,45.277290 33.922894,45.749416 27.828543,45.907677 
	C21.365446,46.075508 14.888354,46.095188 8.432108,45.826073 
	C7.042418,45.768147 5.715771,44.197777 5.119856,43.132847 
	C18.601440,42.932724 31.323254,42.923851 44.045067,42.914978 
	C44.695473,43.360996 45.345882,43.807011 46.047581,44.598129 
z"/>
<path fill="#FFE3B9" opacity="1.000000" stroke="none" 
	d="
M43.956772,42.626144 
	C31.323254,42.923851 18.601440,42.932724 5.407043,42.891983 
	C4.934458,42.842365 4.974509,42.505238 4.982386,42.335670 
	C5.313181,41.949966 5.636101,41.733826 6.057229,41.235054 
	C18.082266,40.934631 30.009092,40.916847 42.395195,40.888000 
	C43.192471,41.363735 43.530476,41.850521 43.956772,42.626144 
z"/>
</svg>